<?xml version="1.0" encoding="UTF-8" standalone="no"?>
<!-- Created with Inkscape (http://www.inkscape.org/) -->

<svg
   xmlns:dc="http://purl.org/dc/elements/1.1/"
   xmlns:cc="http://creativecommons.org/ns#"
   xmlns:rdf="http://www.w3.org/1999/02/22-rdf-syntax-ns#"
   xmlns:svg="http://www.w3.org/2000/svg"
   xmlns="http://www.w3.org/2000/svg"
   xmlns:sodipodi="http://sodipodi.sourceforge.net/DTD/sodipodi-0.dtd"
   xmlns:inkscape="http://www.inkscape.org/namespaces/inkscape"
   version="1.0"
   width="40"
   height="37.484001"
   id="svg2"
   sodipodi:docname="paw4.svg"
   inkscape:version="0.92.3 (unknown)">
  <metadata
     id="metadata12">
    <rdf:RDF>
      <cc:Work
         rdf:about="">
        <dc:format>image/svg+xml</dc:format>
        <dc:type
           rdf:resource="http://purl.org/dc/dcmitype/StillImage" />
        <dc:title></dc:title>
      </cc:Work>
    </rdf:RDF>
  </metadata>
  <sodipodi:namedview
     pagecolor="#ffffff"
     bordercolor="#666666"
     borderopacity="1"
     objecttolerance="10"
     gridtolerance="10"
     guidetolerance="10"
     inkscape:pageopacity="0"
     inkscape:pageshadow="2"
     inkscape:window-width="1699"
     inkscape:window-height="1302"
     id="namedview10"
     showgrid="false"
     inkscape:zoom="9.4627689"
     inkscape:cx="18.825902"
     inkscape:cy="-6.4896503"
     inkscape:window-x="0"
     inkscape:window-y="27"
     inkscape:window-maximized="0"
     inkscape:current-layer="svg2" />
  <defs
     id="defs4" />
  <path
     style="fill:#4a4a4a;fill-opacity:0.86956519;fill-rule:evenodd;stroke:none;stroke-width:0.0939358px;stroke-linecap:butt;stroke-linejoin:miter;stroke-opacity:1"
     d="M 29.160156 22.775391 C 29.834019 23.822985 30.462288 24.908435 31.330078 25.808594 C 32.291708 26.295193 33.252594 26.831049 34.144531 27.455078 C 34.241484 27.52291 34.310987 27.621431 34.40625 27.691406 C 34.238736 27.201926 34.097487 26.701486 33.804688 26.263672 C 32.565608 24.753603 30.880977 23.688096 29.160156 22.775391 z "
     id="path3795" />
  <path
     style="fill:#c9c9c9;fill-opacity:0.45289856;fill-rule:evenodd;stroke:none;stroke-width:0.0939358px;stroke-linecap:butt;stroke-linejoin:miter;stroke-opacity:1"
     d="M 27.214844 20.525391 C 26.82357 20.252294 26.414275 20.000748 25.960938 19.822266 C 24.864027 19.390405 23.63423 19.198167 22.505859 19.066406 C 21.433146 19.085415 20.353515 19.233428 19.341797 19.601562 C 18.893618 19.727575 18.512698 19.937058 18.181641 20.205078 C 17.850584 20.473098 17.569298 20.79836 17.318359 21.154297 C 16.816482 21.86617 16.43858 22.700461 16.035156 23.439453 C 15.753009 24.080049 15.300021 24.556379 14.769531 24.945312 C 14.239041 25.334246 13.63064 25.635365 13.037109 25.923828 C 12.341746 26.28429 11.665762 26.724952 11.042969 27.234375 C 10.420176 27.743798 9.8501584 28.323101 9.3671875 28.958984 C 8.8842166 29.594868 8.4887881 30.287503 8.2128906 31.027344 C 7.9369932 31.767185 7.7808694 32.553703 7.7792969 33.375 C 7.7328807 34.192368 8.0190691 34.95647 8.296875 35.710938 C 9.7572688 36.548992 11.299074 37.34222 13.015625 37.400391 C 14.983706 37.619616 16.817977 36.801846 18.666016 36.283203 C 20.663825 35.652118 22.577898 36.782135 24.498047 37.166016 C 27.502206 37.929456 30.746132 36.899468 33 34.835938 C 34.672533 32.946548 35.229457 30.096842 34.40625 27.691406 C 34.310987 27.621431 34.241484 27.52291 34.144531 27.455078 C 33.252594 26.831049 32.291708 26.295193 31.330078 25.808594 C 30.462288 24.908435 29.834019 23.822985 29.160156 22.775391 C 28.964667 22.671705 28.782136 22.538733 28.585938 22.439453 C 28.037901 21.870975 27.652435 21.178803 27.214844 20.525391 z "
     id="path3793" />
  <path
     style="fill:#4a4a4a;fill-opacity:0.86956519;fill-rule:evenodd;stroke:none;stroke-width:0.0939358px;stroke-linecap:butt;stroke-linejoin:miter;stroke-opacity:1"
     d="M 19.761719 15.697266 C 18.689006 15.716275 17.609374 15.864288 16.597656 16.232422 C 14.804941 16.736471 14.095911 18.592329 13.289062 20.070312 C 12.724767 21.351504 11.48003 21.977761 10.292969 22.554688 C 7.5115156 23.996533 5.0414462 26.720673 5.0351562 30.005859 C 4.9108838 32.194241 6.0576306 34.324108 7.8925781 35.501953 C 8.0223968 35.577841 8.1655805 35.635593 8.296875 35.710938 C 8.0190691 34.95647 7.7328807 34.192368 7.7792969 33.375 C 7.7808694 32.553703 7.9369932 31.767185 8.2128906 31.027344 C 8.4887881 30.287503 8.8842166 29.594868 9.3671875 28.958984 C 9.8501584 28.323101 10.420176 27.743798 11.042969 27.234375 C 11.665762 26.724952 12.341746 26.28429 13.037109 25.923828 C 13.63064 25.635365 14.239041 25.334246 14.769531 24.945312 C 15.300021 24.556379 15.753009 24.080049 16.035156 23.439453 C 16.43858 22.700461 16.816482 21.86617 17.318359 21.154297 C 17.569298 20.79836 17.850584 20.473098 18.181641 20.205078 C 18.512698 19.937058 18.893618 19.727575 19.341797 19.601562 C 20.353515 19.233428 21.433146 19.085415 22.505859 19.066406 C 23.63423 19.198167 24.864027 19.390405 25.960938 19.822266 C 26.414275 20.000748 26.82357 20.252294 27.214844 20.525391 C 26.78603 19.885084 26.303669 19.285148 25.873047 18.648438 C 24.681524 16.466107 22.01846 15.960788 19.761719 15.697266 z "
     id="path2078" />
  <path
     style="fill:#c9c9c9;fill-rule:evenodd;stroke:none;stroke-width:0.0939358px;stroke-linecap:butt;stroke-linejoin:miter;stroke-opacity:1;fill-opacity:0.45289856"
     d="M 10.542969 13.306641 C 10.493851 13.272161 10.471996 13.211114 10.421875 13.177734 C 9.8511415 12.871621 9.2300238 12.635978 8.5898438 12.498047 C 7.9496637 12.360115 7.2908653 12.320682 6.6425781 12.404297 C 5.7358145 12.518816 4.9409162 12.966163 4.3125 13.597656 C 3.6840838 14.22915 3.2214033 15.044518 2.9804688 15.890625 C 2.6931271 17.130815 2.7522942 18.394736 3.0332031 19.619141 C 3.2443594 20.539513 3.6649525 21.394743 4.0742188 22.244141 C 5.6513698 23.273375 7.7846905 23.411938 9.4121094 22.433594 C 10.692444 21.89888 11.688217 20.736891 11.951172 19.365234 C 12.235702 18.203764 12.001557 17.004966 11.65625 15.884766 C 11.396231 14.995696 10.973448 14.144183 10.542969 13.306641 z "
     id="path3781" />
  <path
     style="fill:#4a4a4a;fill-rule:evenodd;stroke:none;stroke-width:0.0939358px;stroke-linecap:butt;stroke-linejoin:miter;stroke-opacity:1;fill-opacity:0.86956519"
     d="M 3.8964844 9.0351562 C 2.0829571 9.2641942 0.71819718 10.829271 0.23632812 12.521484 C -0.33835512 15.001864 0.47248413 17.575734 1.6738281 19.742188 C 2.1810983 20.764184 3.0158333 21.580413 3.9589844 22.205078 C 3.9929159 22.228463 4.0397312 22.221634 4.0742188 22.244141 C 3.6649525 21.394743 3.2443594 20.539513 3.0332031 19.619141 C 2.7522942 18.394736 2.6931271 17.130815 2.9804688 15.890625 C 3.2214033 15.044518 3.6840838 14.22915 4.3125 13.597656 C 4.9409162 12.966163 5.7358145 12.518816 6.6425781 12.404297 C 7.2908653 12.320682 7.9496637 12.360115 8.5898438 12.498047 C 9.2300238 12.635978 9.8511415 12.871621 10.421875 13.177734 C 10.471996 13.211114 10.493851 13.272161 10.542969 13.306641 C 9.8391835 11.937355 8.9693685 10.670747 7.6777344 9.8105469 C 6.5362679 9.1983213 5.1930587 8.867926 3.8964844 9.0351562 z "
     id="path2040" />
  <path
     style="fill:#c9c9c9;fill-rule:evenodd;stroke:none;stroke-width:0.0939358px;stroke-linecap:butt;stroke-linejoin:miter;stroke-opacity:1;fill-opacity:0.45289856"
     d="M 20.267578 3.9199219 C 20.245274 3.9081939 20.219339 3.8783553 20.197266 3.8671875 C 19.314521 3.4205731 18.623047 3.4160156 18.623047 3.4160156 C 18.0024 3.4118221 17.419049 3.5181365 16.892578 3.6816406 C 16.366108 3.8451447 15.895543 4.065054 15.503906 4.2851562 C 14.720632 4.7253608 14.248047 5.1679688 14.248047 5.1679688 C 13.690571 5.7076526 13.303986 6.3388528 13.037109 6.9804688 C 12.770233 7.6220847 12.623973 8.273729 12.546875 8.859375 C 12.39268 10.030667 12.517578 10.933594 12.517578 10.933594 C 12.630259 11.805391 12.85761 12.612305 13.136719 13.333984 C 13.272554 13.685208 13.435477 13.942294 13.587891 14.25 C 16.399753 16.237003 18.691406 14.419922 18.691406 14.419922 C 20.802701 12.972858 20.861328 9.4238281 20.861328 9.4238281 C 21.190485 6.2497701 20.43441 4.3221039 20.267578 3.9199219 z "
     id="path3784" />
  <path
     style="fill:#4a4a4a;fill-rule:evenodd;stroke:none;stroke-width:0.0939358px;stroke-linecap:butt;stroke-linejoin:miter;stroke-opacity:1;fill-opacity:0.86956519"
     d="M 15.878906 0.046875 C 13.396317 0.03010069 11.503906 1.7988281 11.503906 1.7988281 C 9.274004 3.9575636 9.7714844 7.5644531 9.7714844 7.5644531 C 10.222209 11.051642 12.523438 13.517578 12.523438 13.517578 C 12.895797 13.914048 13.22994 13.997054 13.587891 14.25 C 13.435477 13.942294 13.272554 13.685208 13.136719 13.333984 C 12.85761 12.612305 12.630259 11.805391 12.517578 10.933594 C 12.517578 10.933594 12.39268 10.030667 12.546875 8.859375 C 12.623973 8.273729 12.770233 7.6220847 13.037109 6.9804688 C 13.303986 6.3388528 13.690571 5.7076526 14.248047 5.1679688 C 14.248047 5.1679688 14.720632 4.7253608 15.503906 4.2851562 C 15.895543 4.065054 16.366108 3.8451447 16.892578 3.6816406 C 17.419049 3.5181365 18.0024 3.4118221 18.623047 3.4160156 C 18.623047 3.4160156 19.314521 3.4205731 20.197266 3.8671875 C 20.219339 3.8783553 20.245274 3.9081939 20.267578 3.9199219 C 20.249125 3.8754366 20.171875 3.6035156 20.171875 3.6035156 C 18.645418 0.064148885 15.878906 0.046875 15.878906 0.046875 z "
     id="path2071" />
  <path
     style="fill:#c9c9c9;fill-rule:evenodd;stroke:none;stroke-width:0.0939358px;stroke-linecap:butt;stroke-linejoin:miter;stroke-opacity:1;fill-opacity:0.45289856"
     d="M 32.322266 4.0097656 C 32.316777 4.0080476 32.226562 3.953125 32.226562 3.953125 C 31.133668 3.6002988 30.153112 3.6345714 29.296875 3.8847656 C 28.440638 4.1349598 27.708483 4.6013227 27.113281 5.1113281 C 25.922877 6.1313389 25.279297 7.3261719 25.279297 7.3261719 C 24.727752 8.1327325 24.403368 9.0384735 24.226562 9.9414062 C 24.049757 10.844339 24.020515 11.744292 24.060547 12.544922 C 24.129943 13.932853 24.365036 14.708205 24.4375 14.972656 C 25.576993 15.518145 26.496094 15.345703 26.496094 15.345703 C 28.986944 14.966145 30.861328 11.455078 30.861328 11.455078 C 32.711673 8.6083929 32.517578 5.4824219 32.517578 5.4824219 C 32.573999 4.8874403 32.41663 4.4765815 32.322266 4.0097656 z "
     id="path3787" />
  <path
     style="fill:#4a4a4a;fill-rule:evenodd;stroke:none;stroke-width:0.0939358px;stroke-linecap:butt;stroke-linejoin:miter;stroke-opacity:1;fill-opacity:0.86956519"
     d="M 26.552734 0.515625 C 23.984023 1.2662076 22.535156 3.9589844 22.535156 3.9589844 C 20.328975 7.1852273 21.751953 11.976562 21.751953 11.976562 C 22.607706 13.789943 23.579815 14.562072 24.4375 14.972656 C 24.365036 14.708205 24.129943 13.932853 24.060547 12.544922 C 24.020515 11.744292 24.049757 10.844339 24.226562 9.9414062 C 24.403368 9.0384735 24.727752 8.1327325 25.279297 7.3261719 C 25.279297 7.3261719 25.922877 6.1313389 27.113281 5.1113281 C 27.708483 4.6013227 28.440638 4.1349598 29.296875 3.8847656 C 30.153112 3.6345714 31.133668 3.6002988 32.226562 3.953125 C 32.226562 3.953125 32.316777 4.0080476 32.322266 4.0097656 C 31.799419 1.4232553 29.482422 0.58398438 29.482422 0.58398438 C 28.389527 0.23115815 27.408971 0.2654308 26.552734 0.515625 z "
     id="path2073" />
  <path
     style="fill:#c9c9c9;fill-rule:evenodd;stroke:none;stroke-width:0.0939358px;stroke-linecap:butt;stroke-linejoin:miter;stroke-opacity:1;fill-opacity:0.45289856"
     d="M 39.796875 13.548828 C 39.795455 13.548392 39.794389 13.547309 39.792969 13.546875 C 39.502454 13.436886 39.197777 13.363421 38.888672 13.332031 C 38.159307 13.256062 37.452558 13.411865 36.798828 13.705078 C 36.145098 13.998292 35.543241 14.43009 35.021484 14.904297 C 34.33332 15.48142 33.788346 16.187784 33.333984 16.955078 C 32.879623 17.722372 32.515735 18.549719 32.189453 19.369141 C 31.803457 20.239308 31.640211 21.189703 31.679688 22.132812 C 31.695141 22.501995 31.880672 22.83709 31.957031 23.199219 C 33.005301 23.553985 34.123267 23.682937 35.113281 23.142578 C 36.957381 21.985426 38.41585 20.219928 39.224609 18.199219 C 39.72167 16.817175 40.070212 15.332021 39.916016 13.855469 C 39.906433 13.744657 39.81527 13.658459 39.796875 13.548828 z "
     id="path3790" />
  <path
     style="fill:#4a4a4a;fill-rule:evenodd;stroke:none;stroke-width:0.0939358px;stroke-linecap:butt;stroke-linejoin:miter;stroke-opacity:1;fill-opacity:0.86956519"
     d="M 36.142578 9.9648438 C 34.683849 9.8129053 33.320858 10.586743 32.277344 11.535156 C 30.901016 12.689403 30.097876 14.363109 29.445312 16.001953 C 28.67332 17.742288 28.793182 19.798201 29.642578 21.488281 C 29.86731 22.004265 30.185218 22.478531 30.707031 22.728516 C 31.076448 22.97548 31.529693 23.054594 31.957031 23.199219 C 31.880672 22.83709 31.695141 22.501995 31.679688 22.132812 C 31.640211 21.189703 31.803457 20.239308 32.189453 19.369141 C 32.515735 18.549719 32.879623 17.722372 33.333984 16.955078 C 33.788346 16.187784 34.33332 15.48142 35.021484 14.904297 C 35.543241 14.43009 36.145098 13.998292 36.798828 13.705078 C 37.452558 13.411865 38.159307 13.256062 38.888672 13.332031 C 39.197777 13.363421 39.502454 13.436886 39.792969 13.546875 C 39.794389 13.547309 39.795455 13.548392 39.796875 13.548828 C 39.54249 12.032753 38.537216 10.635176 37.046875 10.179688 C 36.75636 10.069699 36.451683 9.9962308 36.142578 9.9648438 z "
     id="path2075" />
</svg>
